REM DIRINDEX 1\2,1\3,1\4,1\5,1\6
REM DIRNAME cjc129,folder01,folder02,folder03,folder04,folder05
TITLE ""
FILE "DISC1Track24.mp3" MP3
  TRACK 01 AUDIO
    TITLE "0:"
    INDEX 01 00:00:00
  TRACK 02 AUDIO
    TITLE "3:cjc129_0663"
    INDEX 01 00:00:05
  TRACK 03 AUDIO
    TITLE "0:"
    INDEX 01 00:01:71
  TRACK 04 AUDIO
    TITLE "5:cjc129_0664"
    INDEX 01 00:02:30
  TRACK 05 AUDIO
    TITLE "0:"
    INDEX 01 00:06:63
  TRACK 06 AUDIO
    TITLE "4:cjc129_0665"
    INDEX 01 00:07:52
  TRACK 07 AUDIO
    TITLE "0:"
    INDEX 01 00:09:45
  TRACK 08 AUDIO
    TITLE "6:cjc129_0666"
    INDEX 01 00:10:02
  TRACK 09 AUDIO
    TITLE "0:"
    INDEX 01 00:13:73
  TRACK 10 AUDIO
    TITLE "3:cjc129_0667"
    INDEX 01 00:15:52
  TRACK 11 AUDIO
    TITLE "0:"
    INDEX 01 00:17:31
  TRACK 12 AUDIO
    TITLE "5:cjc129_0668"
    INDEX 01 00:17:63
  TRACK 13 AUDIO
    TITLE "0:"
    INDEX 01 00:19:58
  TRACK 14 AUDIO
    TITLE "4:cjc129_0669"
    INDEX 01 00:20:53
  TRACK 15 AUDIO
    TITLE "0:"
    INDEX 01 00:22:30
  TRACK 16 AUDIO
    TITLE "6:cjc129_0670"
    INDEX 01 00:22:62
  TRACK 17 AUDIO
    TITLE "0:"
    INDEX 01 00:26:38
  TRACK 18 AUDIO
    TITLE "3:cjc129_0671"
    INDEX 01 00:28:15
  TRACK 19 AUDIO
    TITLE "0:"
    INDEX 01 00:30:12
  TRACK 20 AUDIO
    TITLE "5:cjc129_0672"
    INDEX 01 00:30:44
  TRACK 21 AUDIO
    TITLE "0:"
    INDEX 01 00:32:35
  TRACK 22 AUDIO
    TITLE "4:cjc129_0673"
    INDEX 01 00:33:24
  TRACK 23 AUDIO
    TITLE "0:"
    INDEX 01 00:35:21
  TRACK 24 AUDIO
    TITLE "6:cjc129_0674"
    INDEX 01 00:35:53
  TRACK 25 AUDIO
    TITLE "0:"
    INDEX 01 00:39:56
  TRACK 26 AUDIO
    TITLE "3:cjc129_0675"
    INDEX 01 00:41:32
  TRACK 27 AUDIO
    TITLE "0:"
    INDEX 01 00:43:31
  TRACK 28 AUDIO
    TITLE "5:cjc129_0676"
    INDEX 01 00:43:64
  TRACK 29 AUDIO
    TITLE "0:"
    INDEX 01 00:45:55
  TRACK 30 AUDIO
    TITLE "4:cjc129_0677"
    INDEX 01 00:46:45
  TRACK 31 AUDIO
    TITLE "0:"
    INDEX 01 00:48:42
  TRACK 32 AUDIO
    TITLE "6:cjc129_0678"
    INDEX 01 00:49:00
  TRACK 33 AUDIO
    TITLE "0:"
    INDEX 01 00:53:51
  TRACK 34 AUDIO
    TITLE "3:cjc129_0679"
    INDEX 01 00:55:26
  TRACK 35 AUDIO
    TITLE "0:"
    INDEX 01 00:57:15
  TRACK 36 AUDIO
    TITLE "5:cjc129_0680"
    INDEX 01 00:57:46
  TRACK 37 AUDIO
    TITLE "0:"
    INDEX 01 01:00:29
  TRACK 38 AUDIO
    TITLE "4:cjc129_0681"
    INDEX 01 01:01:21
  TRACK 39 AUDIO
    TITLE "0:"
    INDEX 01 01:03:10
  TRACK 40 AUDIO
    TITLE "6:cjc129_0682"
    INDEX 01 01:03:39
  TRACK 41 AUDIO
    TITLE "0:"
    INDEX 01 01:08:07
  TRACK 42 AUDIO
    TITLE "3:cjc129_0683"
    INDEX 01 01:09:57
  TRACK 43 AUDIO
    TITLE "0:"
    INDEX 01 01:11:66
  TRACK 44 AUDIO
    TITLE "5:cjc129_0684"
    INDEX 01 01:12:24
  TRACK 45 AUDIO
    TITLE "0:"
    INDEX 01 01:16:38
  TRACK 46 AUDIO
    TITLE "4:cjc129_0685"
    INDEX 01 01:17:28
  TRACK 47 AUDIO
    TITLE "0:"
    INDEX 01 01:19:38
  TRACK 48 AUDIO
    TITLE "6:cjc129_0686"
    INDEX 01 01:19:72
  TRACK 49 AUDIO
    TITLE "0:"
    INDEX 01 01:25:04
  TRACK 50 AUDIO
    TITLE "3:cjc129_0687"
    INDEX 01 01:26:54
  TRACK 51 AUDIO
    TITLE "0:"
    INDEX 01 01:28:71
  TRACK 52 AUDIO
    TITLE "5:cjc129_0688"
    INDEX 01 01:29:29
  TRACK 53 AUDIO
    TITLE "0:"
    INDEX 01 01:32:17
  TRACK 54 AUDIO
    TITLE "4:cjc129_0689"
    INDEX 01 01:33:11
  TRACK 55 AUDIO
    TITLE "0:"
    INDEX 01 01:35:26
  TRACK 56 AUDIO
    TITLE "6:cjc129_0690"
    INDEX 01 01:35:59
  TRACK 57 AUDIO
    TITLE "0:"
    INDEX 01 01:40:56
  TRACK 58 AUDIO
    TITLE "3:cjc129_0691"
    INDEX 01 01:42:30
  TRACK 59 AUDIO
    TITLE "0:"
    INDEX 01 01:44:24
  TRACK 60 AUDIO
    TITLE "5:cjc129_0692"
    INDEX 01 01:44:58
  TRACK 61 AUDIO
    TITLE "0:"
    INDEX 01 01:46:57
  TRACK 62 AUDIO
    TITLE "4:cjc129_0693"
    INDEX 01 01:47:48
  TRACK 63 AUDIO
    TITLE "0:"
    INDEX 01 01:49:41
  TRACK 64 AUDIO
    TITLE "6:cjc129_0694"
    INDEX 01 01:50:00
  TRACK 65 AUDIO
    TITLE "0:"
    INDEX 01 01:54:25
